<svg xmlns="http://www.w3.org/2000/svg" width="1696" height="1556" viewBox="0 0 1696 1556" font-family="Segoe UI, Arial, sans-serif">
<defs>
  <marker id="arrow" viewBox="0 0 10 10" refX="9" refY="5" markerWidth="8" markerHeight="8" orient="auto-start-reverse">
    <path d="M0,0 L10,5 L0,10 z" fill="#0f172a"/>
  </marker>
  <marker id="arrowgrey" viewBox="0 0 10 10" refX="9" refY="5" markerWidth="8" markerHeight="8" orient="auto-start-reverse">
    <path d="M0,0 L10,5 L0,10 z" fill="#94a3b8"/>
  </marker>
</defs>
<rect width="1696" height="1556" fill="#f8fafc"/>
<text x="848.0" y="28" text-anchor="middle" font-size="25" font-weight="700" fill="#0f172a">Call Detail — Δέντρο: Chart/Πίνακας → Function → Endpoint → Query</text>
<text x="848.0" y="54" text-anchor="middle" font-size="13.5" fill="#64748b">src/components/CallDetail.tsx  →  src/lib/api.ts  →  backend/app.py (Flask routes)  →  SQL Server πίνακες</text>
<rect x="538.0" y="106" width="620" height="70" rx="10" fill="#1e293b"/>
<text x="848.0" y="134" text-anchor="middle" font-size="15" font-weight="700" fill="#ffffff">CallDetail.tsx — Σελίδα Λεπτομερειών Κλήσης</text>
<text x="848.0" y="156" text-anchor="middle" font-size="11.5" fill="#cbd5e1">23 fetch functions εισαγόμενα από @/lib/api · 8 κατηγορίες panels παρακάτω</text>
<line x1="848.0" y1="176" x2="848.0" y2="194.0" stroke="#0f172a" stroke-width="2.5"/>
<line x1="230.0" y1="194.0" x2="1466.0" y2="194.0" stroke="#0f172a" stroke-width="2.5"/>
<line x1="230.0" y1="194.0" x2="230.0" y2="212" stroke="#0f172a" stroke-width="2.5" marker-end="url(#arrow)"/>
<line x1="642.0" y1="194.0" x2="642.0" y2="212" stroke="#0f172a" stroke-width="2.5" marker-end="url(#arrow)"/>
<line x1="1054.0" y1="194.0" x2="1054.0" y2="212" stroke="#0f172a" stroke-width="2.5" marker-end="url(#arrow)"/>
<line x1="1466.0" y1="194.0" x2="1466.0" y2="212" stroke="#0f172a" stroke-width="2.5" marker-end="url(#arrow)"/>
<line x1="230.0" y1="812" x2="230.0" y2="837.0" stroke="#94a3b8" stroke-width="1.5" stroke-dasharray="4,4"/>
<line x1="642.0" y1="812" x2="642.0" y2="837.0" stroke="#94a3b8" stroke-width="1.5" stroke-dasharray="4,4"/>
<line x1="1054.0" y1="812" x2="1054.0" y2="837.0" stroke="#94a3b8" stroke-width="1.5" stroke-dasharray="4,4"/>
<line x1="1466.0" y1="812" x2="1466.0" y2="837.0" stroke="#94a3b8" stroke-width="1.5" stroke-dasharray="4,4"/>
<line x1="230.0" y1="837.0" x2="1466.0" y2="837.0" stroke="#94a3b8" stroke-width="1.5" stroke-dasharray="4,4"/>
<line x1="230.0" y1="837.0" x2="230.0" y2="862" stroke="#94a3b8" stroke-width="1.5" stroke-dasharray="4,4" marker-end="url(#arrowgrey)"/>
<line x1="642.0" y1="837.0" x2="642.0" y2="862" stroke="#94a3b8" stroke-width="1.5" stroke-dasharray="4,4" marker-end="url(#arrowgrey)"/>
<line x1="1054.0" y1="837.0" x2="1054.0" y2="862" stroke="#94a3b8" stroke-width="1.5" stroke-dasharray="4,4" marker-end="url(#arrowgrey)"/>
<line x1="1466.0" y1="837.0" x2="1466.0" y2="862" stroke="#94a3b8" stroke-width="1.5" stroke-dasharray="4,4" marker-end="url(#arrowgrey)"/>
<rect x="40" y="212" width="380" height="46" rx="9" fill="#6366f1" />
<text x="230.0" y="240.0" text-anchor="middle" font-size="13.5" font-weight="700" fill="#ffffff">Σήμα κατά τη διάρκεια κλήσης</text>
<line x1="230.0" y1="258" x2="230.0" y2="274" stroke="#6366f1" stroke-width="2" />

<rect x="40" y="274" width="380" height="98" rx="8" fill="#eef2ff" stroke="#6366f1" stroke-width="1.3"/>
<text x="52" y="293" font-size="12.3" font-weight="700" fill="#3730a3">LTE Σήμα (RSRP/RSRQ) — A side</text>
<text x="52" y="312" font-size="11" fill="#334155">⤷ fetchLteValues() <tspan fill="#64748b">→</tspan> GET /api/lte_values</text>
<text x="52" y="330" font-size="11" fill="#334155">⤷ app.py: <tspan font-weight="600">get_lte_values()</tspan></text>
<text x="52" y="350" font-size="10.5" fill="#0f172a" font-style="italic">⤷ LTEMeasurementReport</text>
<line x1="230.0" y1="372" x2="230.0" y2="384" stroke="#6366f1" stroke-width="1.5" stroke-dasharray="3,3"/>
<rect x="40" y="384" width="380" height="98" rx="8" fill="#eef2ff" stroke="#6366f1" stroke-width="1.3"/>
<text x="52" y="403" font-size="12.3" font-weight="700" fill="#3730a3">LTE Σήμα (RSRP/RSRQ) — B side</text>
<text x="52" y="422" font-size="11" fill="#334155">⤷ fetchLteValuesBSide() <tspan fill="#64748b">→</tspan> GET /api/lte_values_b_side</text>
<text x="52" y="440" font-size="11" fill="#334155">⤷ app.py: <tspan font-weight="600">get_lte_values_b_side()</tspan></text>
<text x="52" y="460" font-size="10.5" fill="#0f172a" font-style="italic">⤷ LTEMeasurementReport (B SessionId)</text>
<line x1="230.0" y1="482" x2="230.0" y2="494" stroke="#6366f1" stroke-width="1.5" stroke-dasharray="3,3"/>
<rect x="40" y="494" width="380" height="98" rx="8" fill="#eef2ff" stroke="#6366f1" stroke-width="1.3"/>
<text x="52" y="513" font-size="12.3" font-weight="700" fill="#3730a3">GSM Σήμα (RxLev/RxQual) — A side</text>
<text x="52" y="532" font-size="11" fill="#334155">⤷ fetchGsmValues() <tspan fill="#64748b">→</tspan> GET /api/gsm_values</text>
<text x="52" y="550" font-size="11" fill="#334155">⤷ app.py: <tspan font-weight="600">get_gsm_values()</tspan></text>
<text x="52" y="570" font-size="10.5" fill="#0f172a" font-style="italic">⤷ GSMMeasReport</text>
<line x1="230.0" y1="592" x2="230.0" y2="604" stroke="#6366f1" stroke-width="1.5" stroke-dasharray="3,3"/>
<rect x="40" y="604" width="380" height="98" rx="8" fill="#eef2ff" stroke="#6366f1" stroke-width="1.3"/>
<text x="52" y="623" font-size="12.3" font-weight="700" fill="#3730a3">GSM Σήμα (RxLev/RxQual) — B side</text>
<text x="52" y="642" font-size="11" fill="#334155">⤷ fetchGsmValuesBSide() <tspan fill="#64748b">→</tspan> GET /api/gsm_values_b_side</text>
<text x="52" y="660" font-size="11" fill="#334155">⤷ app.py: <tspan font-weight="600">get_gsm_values_b_side()</tspan></text>
<text x="52" y="680" font-size="10.5" fill="#0f172a" font-style="italic">⤷ GSMMeasReport (B SessionId)</text>
<rect x="452" y="212" width="380" height="46" rx="9" fill="#0891b2" />
<text x="642.0" y="240.0" text-anchor="middle" font-size="13.5" font-weight="700" fill="#ffffff">Παράθυρο γύρω από την κλήση (±sec)</text>
<line x1="642.0" y1="258" x2="642.0" y2="274" stroke="#0891b2" stroke-width="2" />

<rect x="452" y="274" width="380" height="98" rx="8" fill="#ecfeff" stroke="#0891b2" stroke-width="1.3"/>
<text x="464" y="293" font-size="12.3" font-weight="700" fill="#155e75">LTE Context Chart — A side</text>
<text x="464" y="312" font-size="11" fill="#334155">⤷ fetchCallContextSignal() <tspan fill="#64748b">→</tspan> GET /api/call_context_signal</text>
<text x="464" y="330" font-size="11" fill="#334155">⤷ app.py: <tspan font-weight="600">get_call_context_signal()</tspan></text>
<text x="464" y="350" font-size="10.5" fill="#0f172a" font-style="italic">⤷ CallAnalysis, LTEMeasurementReport, Sessions, Position</text>
<line x1="642.0" y1="372" x2="642.0" y2="384" stroke="#0891b2" stroke-width="1.5" stroke-dasharray="3,3"/>
<rect x="452" y="384" width="380" height="98" rx="8" fill="#ecfeff" stroke="#0891b2" stroke-width="1.3"/>
<text x="464" y="403" font-size="12.3" font-weight="700" fill="#155e75">GSM Context Chart — A side</text>
<text x="464" y="422" font-size="11" fill="#334155">⤷ fetchGsmContextSignal() <tspan fill="#64748b">→</tspan> GET /api/gsm_context_signal</text>
<text x="464" y="440" font-size="11" fill="#334155">⤷ app.py: <tspan font-weight="600">get_gsm_context_signal()</tspan></text>
<text x="464" y="460" font-size="10.5" fill="#0f172a" font-style="italic">⤷ CallAnalysis, GSMMeasReport, Position</text>
<line x1="642.0" y1="482" x2="642.0" y2="494" stroke="#0891b2" stroke-width="1.5" stroke-dasharray="3,3"/>
<rect x="452" y="494" width="380" height="98" rx="8" fill="#ecfeff" stroke="#0891b2" stroke-width="1.3"/>
<text x="464" y="513" font-size="12.3" font-weight="700" fill="#155e75">LTE Context Chart — B side</text>
<text x="464" y="532" font-size="11" fill="#334155">⤷ fetchCallContextSignalBSide() <tspan fill="#64748b">→</tspan> GET /api/call_context_signal_b_side</text>
<text x="464" y="550" font-size="11" fill="#334155">⤷ app.py: <tspan font-weight="600">get_call_context_signal_b_side()</tspan></text>
<text x="464" y="570" font-size="10.5" fill="#0f172a" font-style="italic">⤷ CallAnalysis, LTEMeasurementReport, SessionsB, Position</text>
<line x1="642.0" y1="592" x2="642.0" y2="604" stroke="#0891b2" stroke-width="1.5" stroke-dasharray="3,3"/>
<rect x="452" y="604" width="380" height="98" rx="8" fill="#ecfeff" stroke="#0891b2" stroke-width="1.3"/>
<text x="464" y="623" font-size="12.3" font-weight="700" fill="#155e75">GSM Context Chart — B side</text>
<text x="464" y="642" font-size="11" fill="#334155">⤷ fetchGsmContextSignalBSide() <tspan fill="#64748b">→</tspan> GET /api/gsm_context_signal_b_side</text>
<text x="464" y="660" font-size="11" fill="#334155">⤷ app.py: <tspan font-weight="600">get_gsm_context_signal_b_side()</tspan></text>
<text x="464" y="680" font-size="10.5" fill="#0f172a" font-style="italic">⤷ CallAnalysis, GSMMeasReport, Position</text>
<line x1="642.0" y1="702" x2="642.0" y2="714" stroke="#0891b2" stroke-width="1.5" stroke-dasharray="3,3"/>
<rect x="452" y="714" width="380" height="98" rx="8" fill="#ecfeff" stroke="#0891b2" stroke-width="1.3"/>
<text x="464" y="733" font-size="12.3" font-weight="700" fill="#155e75">Technology Timeline Chart</text>
<text x="464" y="752" font-size="11" fill="#334155">⤷ fetchCallContextTechnology() <tspan fill="#64748b">→</tspan> GET /api/call_context_technology</text>
<text x="464" y="770" font-size="11" fill="#334155">⤷ app.py: <tspan font-weight="600">get_call_context_technology()</tspan></text>
<text x="464" y="790" font-size="10.5" fill="#0f172a" font-style="italic">⤷ CallAnalysis, Technology, Position</text>
<rect x="864" y="212" width="380" height="46" rx="9" fill="#16a34a" />
<text x="1054.0" y="240.0" text-anchor="middle" font-size="13.5" font-weight="700" fill="#ffffff">Πίνακες αναφοράς</text>
<line x1="1054.0" y1="258" x2="1054.0" y2="274" stroke="#16a34a" stroke-width="2" />

<rect x="864" y="274" width="380" height="98" rx="8" fill="#f0fdf4" stroke="#16a34a" stroke-width="1.3"/>
<text x="876" y="293" font-size="12.3" font-weight="700" fill="#14532d">KPI Results Πίνακας</text>
<text x="876" y="312" font-size="11" fill="#334155">⤷ fetchKpiValues() <tspan fill="#64748b">→</tspan> GET /api/results_kpi</text>
<text x="876" y="330" font-size="11" fill="#334155">⤷ app.py: <tspan font-weight="600">get_results_kpi()</tspan></text>
<text x="876" y="350" font-size="10.5" fill="#0f172a" font-style="italic">⤷ ResultsKPI</text>
<line x1="1054.0" y1="372" x2="1054.0" y2="384" stroke="#16a34a" stroke-width="1.5" stroke-dasharray="3,3"/>
<rect x="864" y="384" width="380" height="98" rx="8" fill="#f0fdf4" stroke="#16a34a" stroke-width="1.3"/>
<text x="876" y="403" font-size="12.3" font-weight="700" fill="#14532d">TraceLog Πίνακας</text>
<text x="876" y="422" font-size="11" fill="#334155">⤷ fetchTracelogValues() <tspan fill="#64748b">→</tspan> GET /api/tracelog_values</text>
<text x="876" y="440" font-size="11" fill="#334155">⤷ app.py: <tspan font-weight="600">get_tracelog_values()</tspan></text>
<text x="876" y="460" font-size="10.5" fill="#0f172a" font-style="italic">⤷ FactSystemTraceLog (A+B)</text>
<line x1="1054.0" y1="482" x2="1054.0" y2="494" stroke="#16a34a" stroke-width="1.5" stroke-dasharray="3,3"/>
<rect x="864" y="494" width="380" height="98" rx="8" fill="#f0fdf4" stroke="#16a34a" stroke-width="1.3"/>
<text x="876" y="513" font-size="12.3" font-weight="700" fill="#14532d">Σύγκριση Side A/B Πίνακας</text>
<text x="876" y="532" font-size="11" fill="#334155">⤷ fetchCallSideComparison() <tspan fill="#64748b">→</tspan> GET /api/call_side_comparison</text>
<text x="876" y="550" font-size="11" fill="#334155">⤷ app.py: <tspan font-weight="600">get_call_side_comparison()</tspan></text>
<text x="876" y="570" font-size="10.5" fill="#0f172a" font-style="italic">⤷ CallAnalysis (group by Side/status)</text>
<line x1="1054.0" y1="592" x2="1054.0" y2="604" stroke="#16a34a" stroke-width="1.5" stroke-dasharray="3,3"/>
<rect x="864" y="604" width="380" height="98" rx="8" fill="#f0fdf4" stroke="#16a34a" stroke-width="1.3"/>
<text x="876" y="623" font-size="12.3" font-weight="700" fill="#14532d">Κάρτα Στοιχείων Συσκευής (A &amp;amp; B)</text>
<text x="876" y="642" font-size="11" fill="#334155">⤷ fetchCallDeviceInfo() <tspan fill="#64748b">→</tspan> GET /api/call_device_info</text>
<text x="876" y="660" font-size="11" fill="#334155">⤷ app.py: <tspan font-weight="600">get_call_device_info()</tspan></text>
<text x="876" y="680" font-size="10.5" fill="#0f172a" font-style="italic">⤷ CallAnalysis, FileList, FactLTERadio, DmnDevice</text>
<rect x="1276" y="212" width="380" height="46" rx="9" fill="#ea580c" />
<text x="1466.0" y="240.0" text-anchor="middle" font-size="13.5" font-weight="700" fill="#ffffff">Cell / Κεραίες</text>
<line x1="1466.0" y1="258" x2="1466.0" y2="274" stroke="#ea580c" stroke-width="2" />

<rect x="1276" y="274" width="380" height="98" rx="8" fill="#fff7ed" stroke="#ea580c" stroke-width="1.3"/>
<text x="1288" y="293" font-size="12.3" font-weight="700" fill="#9a3412">Cell Info (eNB/EARFCN/PCI) — A</text>
<text x="1288" y="312" font-size="11" fill="#334155">⤷ fetchCellInfo() <tspan fill="#64748b">→</tspan> GET /api/cell_info</text>
<text x="1288" y="330" font-size="11" fill="#334155">⤷ app.py: <tspan font-weight="600">get_cell_info()</tspan></text>
<text x="1288" y="350" font-size="10.5" fill="#0f172a" font-style="italic">⤷ FactLTERadio, DmnCellInformation</text>
<line x1="1466.0" y1="372" x2="1466.0" y2="384" stroke="#ea580c" stroke-width="1.5" stroke-dasharray="3,3"/>
<rect x="1276" y="384" width="380" height="98" rx="8" fill="#fff7ed" stroke="#ea580c" stroke-width="1.3"/>
<text x="1288" y="403" font-size="12.3" font-weight="700" fill="#9a3412">Cell Info (eNB/EARFCN/PCI) — B</text>
<text x="1288" y="422" font-size="11" fill="#334155">⤷ fetchCellInfoBSide() <tspan fill="#64748b">→</tspan> GET /api/cell_info_b_side</text>
<text x="1288" y="440" font-size="11" fill="#334155">⤷ app.py: <tspan font-weight="600">get_cell_info_b_side()</tspan></text>
<text x="1288" y="460" font-size="10.5" fill="#0f172a" font-style="italic">⤷ FactLTERadio, DmnCellInformation (B side)</text>
<line x1="1466.0" y1="482" x2="1466.0" y2="494" stroke="#ea580c" stroke-width="1.5" stroke-dasharray="3,3"/>
<rect x="1276" y="494" width="380" height="98" rx="8" fill="#fff7ed" stroke="#ea580c" stroke-width="1.3"/>
<text x="1288" y="513" font-size="12.3" font-weight="700" fill="#9a3412">Κεραίες στον Χάρτη (Cosmote Free)</text>
<text x="1288" y="532" font-size="11" fill="#334155">⤷ fetchAntennas() <tspan fill="#64748b">→</tspan> GET /api/antennas</text>
<text x="1288" y="550" font-size="11" fill="#334155">⤷ app.py: <tspan font-weight="600">get_antennas()</tspan></text>
<text x="1288" y="570" font-size="10.5" fill="#0f172a" font-style="italic">⤷ geo4g.xlsx — cached αρχείο, όχι DB</text>
<rect x="40" y="862" width="380" height="46" rx="9" fill="#db2777" />
<text x="230.0" y="890.0" text-anchor="middle" font-size="13.5" font-weight="700" fill="#ffffff">Καταγραφή Σηματοδοσίας L3</text>
<line x1="230.0" y1="908" x2="230.0" y2="924" stroke="#db2777" stroke-width="2" />

<rect x="40" y="924" width="380" height="98" rx="8" fill="#fdf2f8" stroke="#db2777" stroke-width="1.3"/>
<text x="52" y="943" font-size="12.3" font-weight="700" fill="#9d174d">L3 Messages Log (side A ή B μέσω ?side)</text>
<text x="52" y="962" font-size="11" fill="#334155">⤷ fetchL3Messages() <tspan fill="#64748b">→</tspan> GET /api/l3_messages</text>
<text x="52" y="980" font-size="11" fill="#334155">⤷ app.py: <tspan font-weight="600">get_l3_messages()</tspan></text>
<text x="52" y="998" font-size="10.5" fill="#0f172a" font-style="italic">⤷ CallAnalysis, FactL3Messages   ↳ βλ. αναλυτικό</text>
<text x="52" y="1013" font-size="10.5" fill="#0f172a" font-style="italic">call_detail_flow.svg</text>
<rect x="452" y="862" width="380" height="46" rx="9" fill="#7c3aed" />
<text x="642.0" y="890.0" text-anchor="middle" font-size="13.5" font-weight="700" fill="#ffffff">Scanner Δεδομένα</text>
<line x1="642.0" y1="908" x2="642.0" y2="924" stroke="#7c3aed" stroke-width="2" />

<rect x="452" y="924" width="380" height="98" rx="8" fill="#f5f3ff" stroke="#7c3aed" stroke-width="1.3"/>
<text x="464" y="943" font-size="12.3" font-weight="700" fill="#5b21b6">LTE Measurement Comparison (A vs B)</text>
<text x="464" y="962" font-size="11" fill="#334155">⤷ fetchLteMeasurementComparison() <tspan fill="#64748b">→</tspan> GET /api/lte_measurement_comparison</text>
<text x="464" y="980" font-size="11" fill="#334155">⤷ app.py: <tspan font-weight="600">get_lte_measurement_comparison()</tspan></text>
<text x="464" y="1000" font-size="10.5" fill="#0f172a" font-style="italic">⤷ LTEMeasurementReport (aggr. by EARFCN+PCI)</text>
<line x1="642.0" y1="1022" x2="642.0" y2="1034" stroke="#7c3aed" stroke-width="1.5" stroke-dasharray="3,3"/>
<rect x="452" y="1034" width="380" height="98" rx="8" fill="#f5f3ff" stroke="#7c3aed" stroke-width="1.3"/>
<text x="464" y="1053" font-size="12.3" font-weight="700" fill="#5b21b6">LTE Scanner Measurement (A vs B)</text>
<text x="464" y="1072" font-size="11" fill="#334155">⤷ fetchLteScannerMeasurement() <tspan fill="#64748b">→</tspan> GET /api/lte_scanner_measurement</text>
<text x="464" y="1090" font-size="11" fill="#334155">⤷ app.py: <tspan font-weight="600">get_lte_scanner_measurement()</tspan></text>
<text x="464" y="1110" font-size="10.5" fill="#0f172a" font-style="italic">⤷ FactLTEScanner (aggr. by EARFCN+PCI+Band)</text>
<line x1="642.0" y1="1132" x2="642.0" y2="1144" stroke="#7c3aed" stroke-width="1.5" stroke-dasharray="3,3"/>
<rect x="452" y="1144" width="380" height="98" rx="8" fill="#f5f3ff" stroke="#7c3aed" stroke-width="1.3"/>
<text x="464" y="1163" font-size="12.3" font-weight="700" fill="#5b21b6">LTE Scanner Raw Πίνακας (A vs B)</text>
<text x="464" y="1182" font-size="11" fill="#334155">⤷ fetchLteScannerRaw() <tspan fill="#64748b">→</tspan> GET /api/lte_scanner_raw</text>
<text x="464" y="1200" font-size="11" fill="#334155">⤷ app.py: <tspan font-weight="600">get_lte_scanner_raw()</tspan></text>
<text x="464" y="1220" font-size="10.5" fill="#0f172a" font-style="italic">⤷ FactLTEScanner (raw, by FullDate)</text>
<line x1="642.0" y1="1242" x2="642.0" y2="1254" stroke="#7c3aed" stroke-width="1.5" stroke-dasharray="3,3"/>
<rect x="452" y="1254" width="380" height="98" rx="8" fill="#f5f3ff" stroke="#7c3aed" stroke-width="1.3"/>
<text x="464" y="1273" font-size="12.3" font-weight="700" fill="#5b21b6">GSM Scanner Raw Πίνακας</text>
<text x="464" y="1292" font-size="11" fill="#334155">⤷ fetchGsmScannerRaw() <tspan fill="#64748b">→</tspan> GET /api/gsm_scanner_raw</text>
<text x="464" y="1310" font-size="11" fill="#334155">⤷ app.py: <tspan font-weight="600">get_gsm_scanner_raw()</tspan></text>
<text x="464" y="1330" font-size="10.5" fill="#0f172a" font-style="italic">⤷ FactGSMScanner (closest reading σε call start)</text>
<rect x="864" y="862" width="380" height="46" rx="9" fill="#ca8a04" />
<text x="1054.0" y="890.0" text-anchor="middle" font-size="13.5" font-weight="700" fill="#ffffff">Ποιότητα Κλήσης</text>
<line x1="1054.0" y1="908" x2="1054.0" y2="924" stroke="#ca8a04" stroke-width="2" />

<rect x="864" y="924" width="380" height="98" rx="8" fill="#fefce8" stroke="#ca8a04" stroke-width="1.3"/>
<text x="876" y="943" font-size="12.3" font-weight="700" fill="#854d0e">MOS Tooltip / Inline Metrics</text>
<text x="876" y="962" font-size="11" fill="#334155">⤷ fetchMosValues() <tspan fill="#64748b">→</tspan> GET /api/mos_values</text>
<text x="876" y="980" font-size="11" fill="#334155">⤷ app.py: <tspan font-weight="600">get_mos_values()</tspan></text>
<text x="876" y="1000" font-size="10.5" fill="#0f172a" font-style="italic">⤷ ResultsLQ08Avg</text>
<rect x="1276" y="862" width="380" height="46" rx="9" fill="#475569" />
<text x="1466.0" y="890.0" text-anchor="middle" font-size="13.5" font-weight="700" fill="#ffffff">Ενέργειες Εγγραφής (write)</text>
<line x1="1466.0" y1="908" x2="1466.0" y2="924" stroke="#475569" stroke-width="2" />

<rect x="1276" y="924" width="380" height="98" rx="8" fill="#f1f5f9" stroke="#475569" stroke-width="1.3"/>
<text x="1288" y="943" font-size="12.3" font-weight="700" fill="#1e293b">Αποθήκευση Σχολίου Κλήσης</text>
<text x="1288" y="962" font-size="11" fill="#334155">⤷ updateCallComment() <tspan fill="#64748b">→</tspan> POST /api/calls/comment</text>
<text x="1288" y="980" font-size="11" fill="#334155">⤷ app.py: <tspan font-weight="600">update_call_comment()</tspan></text>
<text x="1288" y="1000" font-size="10.5" fill="#0f172a" font-style="italic">⤷ AnalysisComment, AnalysisCommentSessionsBridge, Sessions</text>
<rect x="40" y="1402" width="1616" height="130" rx="10" fill="#ffffff" stroke="#cbd5e1"/>
<text x="58" y="1426" font-size="13.5" font-weight="700" fill="#0f172a">Στοιχεία χωρίς δικό τους fetch (υπολογίζονται client-side)</text>
<text x="58" y="1448" font-size="11.5" fill="#334155">• GPS τροχιά (Polyline) στον χάρτη — παράγεται από lat/lon μέσα στα radioValues / bSideLteValues, όχι από ξεχωριστό endpoint.</text>
<text x="58" y="1468" font-size="11.5" fill="#334155">• Πλησιέστερη κεραία (marker match) — υπολογίζεται με haversine απόσταση πάνω στα δεδομένα του fetchAntennas().</text>
<text x="58" y="1488" font-size="11.5" fill="#334155">• Reference line συγχρονισμού hover μεταξύ γραφημάτων — τοπικό React state (chartHighlightIndex), καμία κλήση δικτύου.</text>
<text x="58" y="1508" font-size="11.5" fill="#334155">• Header με Download/Upload/Latency/Jitter/Packet Loss/Setup Time — από το props `call`, με μερική συμβολή των mosValues.</text>
</svg>